<svg width="40" height="40" viewBox="0 0 40 40" xmlns="http://www.w3.org/2000/svg">
  <!-- Fundo verde -->
  <rect width="40" height="40" rx="8" fill="#28a745"/>
  
  <!-- Símbolo branco estilizado (S/M interligadas) -->
  <path d="M12 8C12 8 16 8 20 8C24 8 28 8 28 8C28 8 28 12 28 16C28 20 28 24 28 28C28 28 24 28 20 28C16 28 12 28 12 28C12 28 12 24 12 20C12 16 12 12 12 8Z" fill="white" opacity="0.9"/>
  <path d="M16 12C16 12 18 12 20 12C22 12 24 12 24 12C24 12 24 14 24 16C24 18 24 20 24 22C24 22 22 22 20 22C18 22 16 22 16 22C16 22 16 20 16 18C16 16 16 14 16 12Z" fill="white" opacity="0.7"/>
  <path d="M18 16C18 16 19 16 20 16C21 16 22 16 22 16C22 16 22 17 22 18C22 19 22 20 22 21C22 21 21 21 20 21C19 21 18 21 18 21C18 21 18 20 18 19C18 18 18 17 18 16Z" fill="white" opacity="0.5"/>
</svg>

